<svg id="visual" viewBox="0 0 900 300" width="900" height="300" xmlns="http://www.w3.org/2000/svg" xmlns:xlink="http://www.w3.org/1999/xlink" version="1.1"><rect x="0" y="0" width="900" height="300" fill="#00565c"></rect><path d="M0 62L43 76L86 105L129 106L171 98L214 96L257 62L300 63L343 79L386 97L429 72L471 102L514 88L557 71L600 101L643 106L686 82L729 62L771 94L814 83L857 80L900 96L900 301L857 301L814 301L771 301L729 301L686 301L643 301L600 301L557 301L514 301L471 301L429 301L386 301L343 301L300 301L257 301L214 301L171 301L129 301L86 301L43 301L0 301Z" fill="#00565c"></path><path d="M0 80L43 90L86 119L129 93L171 123L214 116L257 96L300 93L343 109L386 112L429 96L471 120L514 93L557 89L600 116L643 102L686 97L729 97L771 93L814 79L857 97L900 117L900 301L857 301L814 301L771 301L729 301L686 301L643 301L600 301L557 301L514 301L471 301L429 301L386 301L343 301L300 301L257 301L214 301L171 301L129 301L86 301L43 301L0 301Z" fill="#006067"></path><path d="M0 119L43 113L86 109L129 136L171 118L214 116L257 102L300 133L343 105L386 102L429 124L471 105L514 112L557 139L600 122L643 123L686 100L729 107L771 123L814 119L857 98L900 116L900 301L857 301L814 301L771 301L729 301L686 301L643 301L600 301L557 301L514 301L471 301L429 301L386 301L343 301L300 301L257 301L214 301L171 301L129 301L86 301L43 301L0 301Z" fill="#006a72"></path><path d="M0 121L43 134L86 122L129 118L171 134L214 143L257 119L300 144L343 122L386 140L429 119L471 157L514 150L557 122L600 129L643 117L686 135L729 154L771 143L814 158L857 145L900 126L900 301L857 301L814 301L771 301L729 301L686 301L643 301L600 301L557 301L514 301L471 301L429 301L386 301L343 301L300 301L257 301L214 301L171 301L129 301L86 301L43 301L0 301Z" fill="#00747d"></path><path d="M0 158L43 143L86 169L129 153L171 160L214 152L257 171L300 158L343 137L386 140L429 149L471 158L514 148L557 145L600 144L643 170L686 153L729 149L771 152L814 170L857 163L900 169L900 301L857 301L814 301L771 301L729 301L686 301L643 301L600 301L557 301L514 301L471 301L429 301L386 301L343 301L300 301L257 301L214 301L171 301L129 301L86 301L43 301L0 301Z" fill="#007f88"></path><path d="M0 171L43 177L86 174L129 163L171 165L214 182L257 173L300 185L343 166L386 159L429 177L471 183L514 183L557 170L600 165L643 174L686 159L729 155L771 177L814 163L857 171L900 158L900 301L857 301L814 301L771 301L729 301L686 301L643 301L600 301L557 301L514 301L471 301L429 301L386 301L343 301L300 301L257 301L214 301L171 301L129 301L86 301L43 301L0 301Z" fill="#00838c"></path><path d="M0 181L43 176L86 190L129 192L171 196L214 190L257 182L300 191L343 185L386 180L429 204L471 187L514 194L557 194L600 191L643 194L686 189L729 185L771 184L814 175L857 192L900 178L900 301L857 301L814 301L771 301L729 301L686 301L643 301L600 301L557 301L514 301L471 301L429 301L386 301L343 301L300 301L257 301L214 301L171 301L129 301L86 301L43 301L0 301Z" fill="#00838c"></path><path d="M0 204L43 210L86 211L129 210L171 209L214 215L257 216L300 198L343 219L386 206L429 195L471 204L514 208L557 204L600 211L643 212L686 209L729 200L771 198L814 197L857 204L900 197L900 301L857 301L814 301L771 301L729 301L686 301L643 301L600 301L557 301L514 301L471 301L429 301L386 301L343 301L300 301L257 301L214 301L171 301L129 301L86 301L43 301L0 301Z" fill="#007f88"></path><path d="M0 230L43 228L86 235L129 234L171 221L214 221L257 232L300 233L343 224L386 213L429 218L471 215L514 226L557 223L600 217L643 218L686 231L729 236L771 216L814 227L857 214L900 219L900 301L857 301L814 301L771 301L729 301L686 301L643 301L600 301L557 301L514 301L471 301L429 301L386 301L343 301L300 301L257 301L214 301L171 301L129 301L86 301L43 301L0 301Z" fill="#00747d"></path><path d="M0 247L43 250L86 234L129 240L171 231L214 238L257 233L300 238L343 244L386 238L429 240L471 247L514 251L557 238L600 240L643 243L686 242L729 237L771 232L814 247L857 238L900 242L900 301L857 301L814 301L771 301L729 301L686 301L643 301L600 301L557 301L514 301L471 301L429 301L386 301L343 301L300 301L257 301L214 301L171 301L129 301L86 301L43 301L0 301Z" fill="#006a72"></path><path d="M0 267L43 250L86 261L129 254L171 266L214 253L257 265L300 251L343 262L386 264L429 262L471 254L514 252L557 257L600 264L643 266L686 260L729 257L771 251L814 265L857 261L900 250L900 301L857 301L814 301L771 301L729 301L686 301L643 301L600 301L557 301L514 301L471 301L429 301L386 301L343 301L300 301L257 301L214 301L171 301L129 301L86 301L43 301L0 301Z" fill="#006067"></path><path d="M0 278L43 281L86 270L129 283L171 272L214 280L257 280L300 278L343 280L386 278L429 269L471 275L514 273L557 272L600 281L643 278L686 277L729 273L771 280L814 272L857 273L900 279L900 301L857 301L814 301L771 301L729 301L686 301L643 301L600 301L557 301L514 301L471 301L429 301L386 301L343 301L300 301L257 301L214 301L171 301L129 301L86 301L43 301L0 301Z" fill="#00565c"></path></svg>