<svg t="1758435810099" class="icon" viewBox="0 0 1024 1024" version="1.1" xmlns="http://www.w3.org/2000/svg" p-id="944"><path d="M992.39905849 861.07030187L642.91403207 511.50256469l348.41792854-348.74411576c36.04134571-36.12755285 36.12522269-94.71891229 0-130.84296989-35.96445923-36.04484096-94.63154119-36.04484096-130.76258816 0.08271189L512.15726933 380.66192498 164.14823993 32.32670834c-36.29064647-36.12522269-94.96471779-36.12522269-130.92335275 0-35.95863381 36.1240576-35.95863381 94.71541703 0 130.83947463l348.16979285 348.33521664-348.99341425 349.16000426c-36.28365597 36.28365597-36.28365597 94.88084082-0.08271189 130.92335162 36.04717113 36.20793458 94.63853056 36.20793458 130.76375324 0l348.9934154-349.24271616 349.48619036 349.73549112c36.1240576 36.04134571 94.79812893 36.04134571 130.83947463 0 36.12289251-36.12522269 35.96329415-94.63270627-0.00232903-131.00722858z" fill="#fff" p-id="945"></path></svg>